<?xml version="1.0" encoding="utf-8"?>
<!-- Generator: Adobe Illustrator 19.1.0, SVG Export Plug-In . SVG Version: 6.00 Build 0)  -->
<svg version="1.1" id="logo" xmlns="http://www.w3.org/2000/svg" xmlns:xlink="http://www.w3.org/1999/xlink" x="0px" y="0px"
	 viewBox="-210 314.7 190 131.6" style="enable-background:new -210 314.7 190 131.6;" xml:space="preserve">
<style type="text/css">
	.st0{fill:#FFFFFF;}
</style>
<path class="st0" d="M-25.1,430.7c0.3-0.8,0.8-1.4,1.4-1.9c0.6-0.5,1.3-0.8,1.9-0.8c0.6,0,1,0.2,1.3,0.5s0.5,0.7,0.5,1.1
	c0,0.2-0.1,0.5-0.2,0.6c-0.2,0.2-0.4,0.3-0.6,0.3c-0.4,0-0.7-0.3-1-0.9c-0.2-0.4-0.4-0.6-0.7-0.6c-0.4,0-0.8,0.2-1.3,0.7
	c-0.5,0.5-0.8,1-1,1.5c-0.1,0.5-0.2,1.3-0.2,2.2v1.9c0,1.1,0,1.8,0,2.1c0,0.3,0.2,0.5,0.4,0.7c0.2,0.2,0.6,0.2,1.1,0.2h0.4v0.6h-5.5
	v-0.6h0.3c0.5,0,0.9-0.1,1.1-0.2c0.2-0.1,0.3-0.3,0.4-0.6c0-0.3,0.1-1,0.1-2.2v-2.9c0-1.1,0-1.8,0-2.1c0-0.3-0.1-0.5-0.4-0.7
	c-0.2-0.2-0.6-0.2-1.1-0.2h-0.3v-0.6c0.8-0.1,1.8-0.3,3.1-0.8C-25.3,428.7-25.1,429.6-25.1,430.7z"/>
<path class="st0" d="M-34.1,432h-7.3c0,0.5-0.1,0.9-0.1,1.1c0,1.8,0.3,3.2,0.9,4.1c0.6,0.9,1.4,1.4,2.6,1.4c1.5,0,2.6-0.7,3.3-2.1
	h0.6c-0.3,0.9-0.8,1.5-1.6,2c-0.8,0.5-1.7,0.7-2.6,0.7c-0.9,0-1.7-0.2-2.5-0.7c-0.8-0.4-1.4-1.1-1.9-1.9s-0.8-1.8-0.8-3
	c0-1.6,0.5-3,1.5-4.1c1-1.1,2.2-1.6,3.6-1.6c1.4,0,2.4,0.4,3.2,1.3C-34.5,430.2-34.1,431.1-34.1,432z M-36.3,431.5
	c0-0.2,0-0.4,0-0.5c0-0.7-0.2-1.3-0.7-1.7c-0.4-0.4-1-0.6-1.6-0.6c-1.5,0-2.5,1-2.8,2.9L-36.3,431.5L-36.3,431.5z"/>
<path class="st0" d="M-48.6,429.1h-3.1v6.3c0,1,0,1.6,0.1,2c0.1,0.3,0.3,0.6,0.5,0.8c0.3,0.2,0.6,0.3,0.9,0.3c0.6,0,1.1-0.3,1.6-1
	l0.4,0.2c-0.3,0.6-0.6,1-1.2,1.3c-0.5,0.3-1,0.4-1.6,0.4c-0.6,0-1.1-0.2-1.6-0.5c-0.5-0.4-0.8-0.8-0.9-1.3c-0.1-0.5-0.2-1.3-0.2-2.5
	v-5.9H-55v-0.6c0.7,0,1.3-0.3,1.9-0.9c0.6-0.6,0.9-1.4,1.1-2.4h0.4v3.3h3.1L-48.6,429.1L-48.6,429.1z"/>
<path class="st0" d="M-59.9,437h0.5c-0.1,1.5-0.8,2.2-2.1,2.2c-0.6,0-1-0.2-1.4-0.5c-0.3-0.3-0.6-0.8-0.7-1.4
	c-0.8,0.6-1.6,1.1-2.3,1.4c-0.7,0.3-1.3,0.5-1.9,0.5c-0.7,0-1.3-0.2-1.8-0.6c-0.5-0.4-0.8-0.9-0.8-1.6c0-0.9,0.4-1.6,1.3-2.3
	c0.9-0.7,2-1.3,3.5-1.9l2-0.8v-0.5c0-0.7,0-1.2-0.1-1.6c-0.1-0.3-0.3-0.6-0.7-0.9c-0.4-0.3-0.9-0.4-1.5-0.4c-1.3,0-2,0.4-2.1,1.3
	c-0.1,0.9-0.5,1.3-1.1,1.3c-0.5,0-0.8-0.2-0.8-0.7c0-0.5,0.3-1,1-1.6c0.7-0.6,1.8-0.8,3.2-0.8c1.1,0,1.9,0.2,2.5,0.5
	c0.6,0.3,1,0.7,1.2,1.2c0.2,0.4,0.3,1.1,0.3,2v4.2c0,1,0.1,1.6,0.2,1.9c0.1,0.3,0.3,0.4,0.7,0.4C-60.3,438.2-60,437.8-59.9,437z
	 M-63.5,432.5l-1.4,0.6c-2.2,0.9-3.3,2-3.3,3.4c0,0.5,0.1,1,0.4,1.3c0.3,0.3,0.6,0.5,1.1,0.5c0.4,0,0.9-0.1,1.4-0.4
	c0.5-0.3,1.1-0.7,1.8-1.2V432.5z"/>
<path class="st0" d="M-80.1,439.3h-0.6l-3.1-8.3l-3.2,8.3h-0.5l-3.2-8.3c-0.4-0.9-0.6-1.5-0.8-1.7c-0.2-0.2-0.5-0.3-1.1-0.3v-0.6
	h4.8v0.6c-0.5,0-0.9,0-1.1,0.1c-0.2,0.1-0.3,0.3-0.3,0.5c0,0.2,0.2,0.7,0.5,1.5l2.1,5.6l3.2-8.3h0.5l3.1,8.3l2.3-5.9
	c0.2-0.6,0.4-1,0.4-1.1c0-0.4-0.4-0.6-1.3-0.7v-0.6h3.4v0.6c-0.4,0-0.7,0.1-1,0.2c-0.2,0.1-0.4,0.5-0.6,1l-0.3,0.7L-80.1,439.3z"/>
<path class="st0" d="M-111,429.1c0-0.4,0.1-0.7,0.4-1c0.3-0.3,0.6-0.4,1-0.4c0.4,0,0.7,0.1,1,0.4c0.3,0.3,0.4,0.6,0.4,1
	c0,0.4-0.1,0.7-0.4,1c-0.3,0.3-0.6,0.4-1,0.4c-0.4,0-0.7-0.1-1-0.4C-110.9,429.8-111,429.5-111,429.1z M-111,438
	c0-0.4,0.1-0.7,0.4-1c0.3-0.3,0.6-0.4,1-0.4c0.4,0,0.7,0.1,1,0.4c0.3,0.3,0.4,0.6,0.4,1c0,0.4-0.1,0.7-0.4,1c-0.3,0.3-0.6,0.4-1,0.4
	c-0.4,0-0.7-0.1-1-0.4C-110.9,438.6-111,438.3-111,438z"/>
<path class="st0" d="M-121.8,436.9l2.4-5.8c0.3-0.8,0.5-1.3,0.5-1.4c0-0.4-0.5-0.6-1.4-0.7v-0.6h3.7v0.6c-0.6,0-1,0.2-1.2,0.4
	c-0.3,0.3-0.6,0.9-1,1.8l-4.7,11.2c-0.4,1.1-0.8,1.8-1.2,2.2c-0.3,0.4-0.7,0.6-1.1,0.6c-0.6,0-0.8-0.3-0.8-0.8
	c0-0.6,0.4-1.1,1.3-1.5c0.5-0.2,0.9-0.4,1-0.6c0.2-0.2,0.3-0.5,0.5-0.9l1-2.5l-3.9-8.4c-0.3-0.7-0.6-1.2-0.9-1.4
	c-0.2-0.2-0.6-0.3-1.2-0.3v-0.6h4.8v0.6c-0.8,0-1.3,0.2-1.3,0.5c0,0.1,0.2,0.5,0.5,1.2L-121.8,436.9z"/>
<path class="st0" d="M-132.6,429.1h-3.1v6.3c0,1,0,1.6,0.1,2c0.1,0.3,0.3,0.6,0.5,0.8c0.3,0.2,0.6,0.3,0.9,0.3c0.6,0,1.1-0.3,1.6-1
	l0.4,0.2c-0.3,0.6-0.6,1-1.2,1.3c-0.5,0.3-1,0.4-1.6,0.4c-0.6,0-1.1-0.2-1.6-0.5c-0.5-0.4-0.8-0.8-0.9-1.3c-0.1-0.5-0.2-1.3-0.2-2.5
	v-5.9h-1.5v-0.6c0.7,0,1.3-0.3,1.9-0.9s0.9-1.4,1.1-2.4h0.4v3.3h3.1V429.1z"/>
<path class="st0" d="M-145.7,428.1v7.3c0,1.1,0,1.8,0.1,2.1c0,0.3,0.2,0.5,0.4,0.7c0.2,0.2,0.6,0.2,1.1,0.2h0.3v0.6h-5.6v-0.6h0.4
	c0.6,0,1-0.1,1.2-0.3c0.2-0.2,0.3-0.4,0.3-0.6c0-0.2,0-0.9,0-2.1v-3.2c0-1.2-0.1-2-0.2-2.2c-0.1-0.3-0.3-0.4-0.5-0.5
	c-0.2-0.1-0.5-0.1-1-0.1h-0.3v-0.6c1.5-0.2,2.7-0.4,3.5-0.7L-145.7,428.1L-145.7,428.1z M-148.2,422.8c0-0.4,0.1-0.7,0.4-0.9
	c0.3-0.3,0.6-0.4,0.9-0.4c0.4,0,0.7,0.1,0.9,0.4c0.3,0.3,0.4,0.6,0.4,0.9c0,0.4-0.1,0.7-0.4,1c-0.3,0.3-0.6,0.4-0.9,0.4
	c-0.4,0-0.7-0.1-0.9-0.4C-148.1,423.4-148.2,423.1-148.2,422.8z"/>
<path class="st0" d="M-158.8,430.7c0.3-0.8,0.8-1.4,1.4-1.9c0.6-0.5,1.3-0.8,1.9-0.8c0.6,0,1,0.2,1.3,0.5c0.3,0.3,0.5,0.7,0.5,1.1
	c0,0.2-0.1,0.5-0.2,0.6c-0.2,0.2-0.4,0.3-0.6,0.3c-0.4,0-0.7-0.3-1-0.9c-0.2-0.4-0.4-0.6-0.7-0.6c-0.4,0-0.8,0.2-1.3,0.7
	c-0.5,0.5-0.8,1-1,1.5c-0.1,0.5-0.2,1.3-0.2,2.2v1.9c0,1.1,0,1.8,0,2.1c0,0.3,0.1,0.5,0.4,0.7c0.2,0.2,0.6,0.2,1.1,0.2h0.4v0.6h-5.5
	v-0.6h0.3c0.5,0,0.9-0.1,1.1-0.2c0.2-0.1,0.3-0.3,0.4-0.6c0-0.3,0.1-1,0.1-2.2v-2.9c0-1.1,0-1.8,0-2.1c0-0.3-0.2-0.5-0.4-0.7
	c-0.2-0.2-0.6-0.2-1.1-0.2h-0.3v-0.6c0.8-0.1,1.8-0.3,3.1-0.8C-158.9,428.7-158.8,429.6-158.8,430.7z"/>
<path class="st0" d="M-167.5,437h0.5c-0.1,1.5-0.8,2.2-2.1,2.2c-0.6,0-1-0.2-1.4-0.5c-0.3-0.3-0.6-0.8-0.7-1.4
	c-0.9,0.6-1.6,1.1-2.3,1.4c-0.7,0.3-1.3,0.5-1.9,0.5c-0.7,0-1.3-0.2-1.8-0.6c-0.5-0.4-0.8-0.9-0.8-1.6c0-0.9,0.4-1.6,1.3-2.3
	c0.9-0.7,2-1.3,3.5-1.9l2-0.8v-0.5c0-0.7,0-1.2-0.1-1.6c-0.1-0.3-0.3-0.6-0.7-0.9c-0.4-0.3-0.9-0.4-1.5-0.4c-1.3,0-2,0.4-2.1,1.3
	c-0.1,0.9-0.5,1.3-1.1,1.3c-0.5,0-0.8-0.2-0.8-0.7c0-0.5,0.3-1,1-1.6c0.7-0.6,1.8-0.8,3.2-0.8c1.1,0,1.9,0.2,2.5,0.5
	c0.6,0.3,1,0.7,1.2,1.2c0.2,0.4,0.3,1.1,0.3,2v4.2c0,1,0.1,1.6,0.2,1.9c0.1,0.3,0.3,0.4,0.7,0.4C-168,438.2-167.6,437.8-167.5,437z
	 M-171.2,432.5l-1.4,0.6c-2.2,0.9-3.3,2-3.3,3.4c0,0.5,0.1,1,0.4,1.3c0.3,0.3,0.6,0.5,1.1,0.5c0.4,0,0.9-0.1,1.4-0.4
	c0.5-0.3,1.1-0.7,1.8-1.2C-171.2,436.7-171.2,432.5-171.2,432.5z"/>
<path class="st0" d="M-192.2,430.2c0.5-0.7,1.1-1.2,1.7-1.6c0.6-0.4,1.3-0.5,2.1-0.5c0.9,0,1.6,0.2,2.1,0.5c0.6,0.4,0.9,0.8,1.1,1.3
	c0.2,0.5,0.3,1.4,0.3,2.5v2.9c0,1.2,0,2,0.1,2.2c0,0.3,0.2,0.5,0.4,0.6c0.2,0.1,0.7,0.2,1.3,0.2v0.6h-5.4v-0.6h0.2
	c0.6,0,1-0.1,1.2-0.3c0.2-0.2,0.3-0.4,0.3-0.6c0-0.2,0-0.9,0-2.1v-3.1c0-0.9-0.1-1.5-0.2-1.9c-0.1-0.4-0.3-0.8-0.7-1
	c-0.4-0.3-0.9-0.4-1.4-0.4c-0.7,0-1.3,0.2-1.8,0.6c-0.5,0.4-1,1-1.4,1.7v4.2c0,1.2,0,1.9,0.1,2.2c0,0.3,0.2,0.5,0.4,0.6
	c0.2,0.1,0.6,0.2,1.2,0.2v0.6h-5.3v-0.6h0.3c0.6,0,1-0.1,1.2-0.3c0.2-0.2,0.3-0.4,0.3-0.6c0-0.2,0-0.9,0-2.1v-10.4
	c0-1.1-0.1-1.7-0.3-2c-0.2-0.3-0.7-0.4-1.4-0.4v-0.6c1.3,0,2.4-0.2,3.3-0.5h0.3L-192.2,430.2L-192.2,430.2z"/>
<path class="st0" d="M-201,436.4h0.5c-0.6,2-2,3-4.3,3c-1.5,0-2.7-0.5-3.7-1.5c-1-1-1.5-2.3-1.5-4c0-1.7,0.5-3.1,1.6-4.1
	c1.1-1.1,2.4-1.6,3.9-1.6c0.9,0,1.7,0.2,2.5,0.6c0.8,0.4,1.1,0.9,1.1,1.4c0,0.2-0.1,0.4-0.2,0.6c-0.1,0.2-0.3,0.3-0.6,0.3
	c-0.6,0-0.9-0.3-1-1c-0.1-0.5-0.3-0.8-0.5-1c-0.2-0.2-0.6-0.3-1.3-0.3c-1.1,0-2,0.4-2.6,1.2c-0.6,0.8-0.9,2-0.9,3.6
	c0,1.6,0.3,2.9,0.9,3.8c0.6,0.9,1.5,1.4,2.8,1.4C-202.5,438.7-201.4,437.9-201,436.4z"/>
<path id="jerry_can" class="st0" d="M-105.9,358.9h-14.4c-1.3,0-2.3,1-2.3,2.3v6.3c0,1.3,1,2.3,2.3,2.3h14.4c1.3,0,2.3-1,2.3-2.3
	v-6.3C-103.5,359.9-104.6,358.9-105.9,358.9z M-82.3,326.6c-0.4-0.9-3.2-6.4-3.2-6.4s1.1-0.6,1.5-0.9c0.5-0.2,0.8-0.5,0.2-1.8
	c-0.7-1.3-1.4-0.9-1.4-0.9s-0.9,0.5-2,1c-1.7-2.6-4.1-2.8-4.9-2.8c-0.5,0-2.8,0-3.6,0c-0.7,0-1.4,0.1-1.7,0.5
	c-0.3,0.4-1,0.7-1.8,0.7s-24.4,0-24.4,0c-0.2,0-0.3-0.1-0.4-0.2c-1.6-0.9-3.4,0-3.8,0.4c-0.4,0.4-1.9,2.3-2.8,3.3
	c-0.9,1-1.7,1.2-2.3,1.4c0.4-0.5,0.1-1,0.1-1l-0.4-0.7l0.5-1.4l0.5-0.2l-0.3-0.6c0,0-0.3,0.1-0.8,0.4c-0.5,0.3-0.5,0.5-0.5,0.5
	c-0.2,0.9-0.9,0.9-0.9,0.9s-1.4-2.6-1.6-3c-0.2-0.3-0.6-1.4-5.2,1.1c-4.7,2.5-3.6,3.5-3.6,3.5l1.6,3.1l-0.5,0.4l1.2,2.3
	c0,0-0.3,0.1-1.3,0.8c-1,0.7-2.1,1.3-2.1,3.2v67.1c0,5.1,1.4,7.4,7.1,7.4h51.4c3.3,0,6.5-1.7,6.5-7.5v-66.4
	C-81.2,327.5-81.9,327.5-82.3,326.6z M-119.2,321h17.1c1.5,0,2.7,1.2,2.7,2.6c0,1.5-1.2,2.6-2.7,2.6h-17.1c-1.5,0-2.6-1.2-2.6-2.6
	C-121.8,322.2-120.6,321-119.2,321z M-97.5,373.8c0,0,5.7,10,6.9,12.3c1.6,3-0.6,4.3-0.6,4.3s-2.9,1.4-4.3-1.2
	c-1.2-2.2-5.2-9.3-6.6-11.4c-1.8-2.8-2.6-3.8-5.1-3.8c-3.3,0-1.2,0-5.8,0h-0.4c-4.6,0-2.5,0-5.9,0c-2.5,0-3.3,1-5.1,3.8
	c-1.4,2.2-5.5,9.2-6.7,11.4c-1.5,2.6-4.4,1.2-4.4,1.2s-2.2-1.3-0.6-4.3c1.2-2.3,7-12.3,7-12.3s1.5-2.2,1.5-4v-5.1c0-0.6,0-1,0-1
	v-5.1c0-1.8-1.5-4-1.5-4s-5.8-10-7-12.3c-1.6-3,0.6-4.3,0.6-4.3s2.9-1.4,4.4,1.2c1.2,2.2,5.3,9.2,6.7,11.4c1.8,2.8,2.6,3.7,5.1,3.7
	c3.3,0,1.2,0,5.9,0h0.4c4.6,0,2.5,0,5.8,0c2.5,0,3.2-1,5.1-3.7c1.4-2.2,5.4-9.2,6.6-11.4c1.4-2.6,4.3-1.2,4.3-1.2s2.2,1.3,0.6,4.3
	c-1.2,2.3-6.9,12.3-6.9,12.3s-1.4,2.2-1.4,4v5.1c0,0.6,0,1,0,1v5.1C-98.9,371.6-97.5,373.8-97.5,373.8z"/>
</svg>
